<svg width="200" height="31" viewBox="0 0 200 31" fill="none" xmlns="http://www.w3.org/2000/svg">
<rect width="22.7327" height="22.6324" transform="matrix(0.752477 -0.658618 0.70603 0.708182 13.915 14.9722)" fill="#D3C7FF"/>
<path d="M62.63 7.6V22H61.44C61.26 22 61.1067 21.97 60.98 21.91C60.8533 21.8433 60.7333 21.7367 60.62 21.59L52.71 11.43C52.73 11.6233 52.7433 11.8167 52.75 12.01C52.7633 12.1967 52.77 12.37 52.77 12.53V22H50.71V7.6H51.93C52.03 7.6 52.1133 7.60667 52.18 7.62C52.2533 7.62667 52.32 7.64333 52.38 7.67C52.44 7.69667 52.4967 7.73667 52.55 7.79C52.6033 7.84333 52.66 7.91 52.72 7.99L60.64 18.16C60.62 17.9533 60.6033 17.75 60.59 17.55C60.5833 17.35 60.58 17.1633 60.58 16.99V7.6H62.63ZM69.7591 11.64C70.5124 11.64 71.1924 11.7633 71.7991 12.01C72.4124 12.2567 72.9324 12.6067 73.3591 13.06C73.7924 13.5133 74.1257 14.0633 74.3591 14.71C74.5924 15.3567 74.7091 16.0833 74.7091 16.89C74.7091 17.6967 74.5924 18.4233 74.3591 19.07C74.1257 19.7167 73.7924 20.27 73.3591 20.73C72.9324 21.1833 72.4124 21.5333 71.7991 21.78C71.1924 22.0267 70.5124 22.15 69.7591 22.15C68.9991 22.15 68.3124 22.0267 67.6991 21.78C67.0924 21.5333 66.5724 21.1833 66.1391 20.73C65.7057 20.27 65.3724 19.7167 65.1391 19.07C64.9057 18.4233 64.7891 17.6967 64.7891 16.89C64.7891 16.0833 64.9057 15.3567 65.1391 14.71C65.3724 14.0633 65.7057 13.5133 66.1391 13.06C66.5724 12.6067 67.0924 12.2567 67.6991 12.01C68.3124 11.7633 68.9991 11.64 69.7591 11.64ZM69.7591 20.47C70.6791 20.47 71.3624 20.1633 71.8091 19.55C72.2624 18.93 72.4891 18.0467 72.4891 16.9C72.4891 15.7533 72.2624 14.87 71.8091 14.25C71.3624 13.6233 70.6791 13.31 69.7591 13.31C68.8257 13.31 68.1324 13.6233 67.6791 14.25C67.2257 14.87 66.9991 15.7533 66.9991 16.9C66.9991 18.0467 67.2257 18.93 67.6791 19.55C68.1324 20.1633 68.8257 20.47 69.7591 20.47ZM85.4619 11.8L81.3619 22H79.4219L75.3219 11.8H77.0919C77.2585 11.8 77.3952 11.8433 77.5019 11.93C77.6152 12.01 77.6885 12.1067 77.7219 12.22L79.9819 18.16C80.0752 18.44 80.1585 18.7167 80.2319 18.99C80.3052 19.2633 80.3685 19.54 80.4219 19.82C80.4752 19.54 80.5385 19.2667 80.6119 19C80.6919 18.7267 80.7785 18.4467 80.8719 18.16L83.1719 12.22C83.2119 12.1 83.2852 12 83.3919 11.92C83.4985 11.84 83.6285 11.8 83.7819 11.8H85.4619ZM92.1467 17.54C91.3801 17.5667 90.7334 17.63 90.2067 17.73C89.6801 17.8233 89.2534 17.9467 88.9267 18.1C88.6001 18.2467 88.3634 18.4233 88.2167 18.63C88.0767 18.8367 88.0067 19.0633 88.0067 19.31C88.0067 19.55 88.0434 19.7567 88.1167 19.93C88.1967 20.0967 88.3034 20.2367 88.4367 20.35C88.5767 20.4567 88.7367 20.5367 88.9167 20.59C89.1034 20.6367 89.3067 20.66 89.5267 20.66C90.0867 20.66 90.5667 20.5567 90.9667 20.35C91.3734 20.1367 91.7667 19.83 92.1467 19.43V17.54ZM86.4467 13.22C87.6001 12.1467 88.9734 11.61 90.5667 11.61C91.1534 11.61 91.6734 11.7067 92.1267 11.9C92.5867 12.0867 92.9701 12.3533 93.2767 12.7C93.5901 13.0467 93.8267 13.46 93.9867 13.94C94.1534 14.4133 94.2367 14.94 94.2367 15.52V22H93.2767C93.0701 22 92.9134 21.97 92.8067 21.91C92.7001 21.8433 92.6101 21.7133 92.5367 21.52L92.3267 20.69C92.0667 20.9233 91.8101 21.1333 91.5567 21.32C91.3034 21.5 91.0401 21.6533 90.7667 21.78C90.5001 21.9067 90.2101 22 89.8967 22.06C89.5901 22.1267 89.2501 22.16 88.8767 22.16C88.4634 22.16 88.0767 22.1033 87.7167 21.99C87.3634 21.8767 87.0567 21.7067 86.7967 21.48C86.5367 21.2467 86.3301 20.96 86.1767 20.62C86.0301 20.28 85.9567 19.88 85.9567 19.42C85.9567 19.0267 86.0601 18.6433 86.2667 18.27C86.4801 17.8967 86.8267 17.5633 87.3067 17.27C87.7934 16.97 88.4301 16.7233 89.2167 16.53C90.0101 16.3367 90.9867 16.2267 92.1467 16.2V15.52C92.1467 14.7867 91.9901 14.24 91.6767 13.88C91.3634 13.52 90.9034 13.34 90.2967 13.34C89.8834 13.34 89.5367 13.3933 89.2567 13.5C88.9767 13.6 88.7334 13.71 88.5267 13.83C88.3201 13.95 88.1367 14.0633 87.9767 14.17C87.8167 14.27 87.6467 14.32 87.4667 14.32C87.3201 14.32 87.1934 14.2833 87.0867 14.21C86.9867 14.13 86.9034 14.0333 86.8367 13.92L86.4467 13.22ZM98.7853 13.69C99.1053 13.0433 99.492 12.5367 99.9453 12.17C100.399 11.7967 100.942 11.61 101.575 11.61C101.795 11.61 102.002 11.6367 102.195 11.69C102.389 11.7367 102.562 11.81 102.715 11.91L102.565 13.53C102.539 13.6433 102.495 13.7233 102.435 13.77C102.382 13.81 102.309 13.83 102.215 13.83C102.115 13.83 101.972 13.8133 101.785 13.78C101.599 13.74 101.402 13.72 101.195 13.72C100.895 13.72 100.629 13.7633 100.395 13.85C100.169 13.9367 99.962 14.0633 99.7753 14.23C99.5953 14.3967 99.4353 14.6 99.2953 14.84C99.1553 15.08 99.0253 15.3533 98.9053 15.66V22H96.7553V11.8H98.0053C98.232 11.8 98.3886 11.8433 98.4753 11.93C98.562 12.01 98.622 12.1533 98.6553 12.36L98.7853 13.69ZM110.477 15.75C110.477 15.39 110.423 15.0567 110.317 14.75C110.217 14.4367 110.067 14.1667 109.867 13.94C109.667 13.7067 109.417 13.5267 109.117 13.4C108.823 13.2667 108.483 13.2 108.097 13.2C107.317 13.2 106.703 13.4233 106.257 13.87C105.81 14.3167 105.527 14.9433 105.407 15.75H110.477ZM105.347 17.07C105.373 17.65 105.463 18.1533 105.617 18.58C105.77 19 105.973 19.35 106.227 19.63C106.487 19.91 106.793 20.12 107.147 20.26C107.507 20.3933 107.907 20.46 108.347 20.46C108.767 20.46 109.13 20.4133 109.437 20.32C109.743 20.22 110.01 20.1133 110.237 20C110.463 19.88 110.657 19.7733 110.817 19.68C110.977 19.58 111.123 19.53 111.257 19.53C111.43 19.53 111.563 19.5967 111.657 19.73L112.267 20.52C112.013 20.82 111.727 21.0733 111.407 21.28C111.087 21.4867 110.747 21.6567 110.387 21.79C110.027 21.9167 109.657 22.0067 109.277 22.06C108.897 22.12 108.527 22.15 108.167 22.15C107.46 22.15 106.803 22.0333 106.197 21.8C105.597 21.56 105.073 21.21 104.627 20.75C104.187 20.29 103.84 19.72 103.587 19.04C103.34 18.36 103.217 17.5767 103.217 16.69C103.217 15.9833 103.327 15.3233 103.547 14.71C103.773 14.0967 104.093 13.5633 104.507 13.11C104.927 12.6567 105.433 12.3 106.027 12.04C106.627 11.7733 107.303 11.64 108.057 11.64C108.683 11.64 109.263 11.7433 109.797 11.95C110.33 12.15 110.79 12.4467 111.177 12.84C111.563 13.2333 111.863 13.7167 112.077 14.29C112.297 14.8567 112.407 15.5033 112.407 16.23C112.407 16.5633 112.37 16.7867 112.297 16.9C112.223 17.0133 112.09 17.07 111.897 17.07H105.347ZM126.748 16.6L124.768 11.34C124.608 10.9333 124.445 10.4167 124.278 9.79C124.205 10.1033 124.125 10.3933 124.038 10.66C123.951 10.92 123.871 11.15 123.798 11.35L121.818 16.6H126.748ZM131.178 22H129.368C129.161 22 128.995 21.95 128.868 21.85C128.741 21.7433 128.645 21.6133 128.578 21.46L127.378 18.28H121.178L119.978 21.46C119.925 21.5933 119.831 21.7167 119.698 21.83C119.565 21.9433 119.398 22 119.198 22H117.388L123.098 7.6H125.468L131.178 22ZM139.395 13.8C139.328 13.8867 139.265 13.9533 139.205 14C139.145 14.0467 139.058 14.07 138.945 14.07C138.832 14.07 138.712 14.03 138.585 13.95C138.465 13.87 138.318 13.7833 138.145 13.69C137.978 13.59 137.775 13.5 137.535 13.42C137.295 13.34 136.995 13.3 136.635 13.3C136.168 13.3 135.758 13.3833 135.405 13.55C135.058 13.7167 134.765 13.9567 134.525 14.27C134.292 14.5767 134.115 14.9533 133.995 15.4C133.882 15.84 133.825 16.3367 133.825 16.89C133.825 17.4633 133.888 17.9733 134.015 18.42C134.142 18.8667 134.322 19.2433 134.555 19.55C134.795 19.8567 135.082 20.09 135.415 20.25C135.755 20.41 136.135 20.49 136.555 20.49C136.968 20.49 137.305 20.44 137.565 20.34C137.825 20.24 138.042 20.13 138.215 20.01C138.388 19.89 138.535 19.78 138.655 19.68C138.782 19.58 138.915 19.53 139.055 19.53C139.228 19.53 139.362 19.5967 139.455 19.73L140.065 20.52C139.818 20.82 139.545 21.0733 139.245 21.28C138.945 21.4867 138.628 21.6567 138.295 21.79C137.962 21.9167 137.615 22.0067 137.255 22.06C136.895 22.12 136.532 22.15 136.165 22.15C135.532 22.15 134.938 22.0333 134.385 21.8C133.838 21.56 133.358 21.2167 132.945 20.77C132.538 20.3167 132.215 19.7667 131.975 19.12C131.742 18.4667 131.625 17.7233 131.625 16.89C131.625 16.1367 131.732 15.44 131.945 14.8C132.158 14.1533 132.468 13.5967 132.875 13.13C133.288 12.6633 133.798 12.3 134.405 12.04C135.012 11.7733 135.712 11.64 136.505 11.64C137.245 11.64 137.895 11.76 138.455 12C139.022 12.24 139.525 12.58 139.965 13.02L139.395 13.8ZM147.244 17.54C146.478 17.5667 145.831 17.63 145.304 17.73C144.778 17.8233 144.351 17.9467 144.024 18.1C143.698 18.2467 143.461 18.4233 143.314 18.63C143.174 18.8367 143.104 19.0633 143.104 19.31C143.104 19.55 143.141 19.7567 143.214 19.93C143.294 20.0967 143.401 20.2367 143.534 20.35C143.674 20.4567 143.834 20.5367 144.014 20.59C144.201 20.6367 144.404 20.66 144.624 20.66C145.184 20.66 145.664 20.5567 146.064 20.35C146.471 20.1367 146.864 19.83 147.244 19.43V17.54ZM141.544 13.22C142.698 12.1467 144.071 11.61 145.664 11.61C146.251 11.61 146.771 11.7067 147.224 11.9C147.684 12.0867 148.068 12.3533 148.374 12.7C148.688 13.0467 148.924 13.46 149.084 13.94C149.251 14.4133 149.334 14.94 149.334 15.52V22H148.374C148.168 22 148.011 21.97 147.904 21.91C147.798 21.8433 147.708 21.7133 147.634 21.52L147.424 20.69C147.164 20.9233 146.908 21.1333 146.654 21.32C146.401 21.5 146.138 21.6533 145.864 21.78C145.598 21.9067 145.308 22 144.994 22.06C144.688 22.1267 144.348 22.16 143.974 22.16C143.561 22.16 143.174 22.1033 142.814 21.99C142.461 21.8767 142.154 21.7067 141.894 21.48C141.634 21.2467 141.428 20.96 141.274 20.62C141.128 20.28 141.054 19.88 141.054 19.42C141.054 19.0267 141.158 18.6433 141.364 18.27C141.578 17.8967 141.924 17.5633 142.404 17.27C142.891 16.97 143.528 16.7233 144.314 16.53C145.108 16.3367 146.084 16.2267 147.244 16.2V15.52C147.244 14.7867 147.088 14.24 146.774 13.88C146.461 13.52 146.001 13.34 145.394 13.34C144.981 13.34 144.634 13.3933 144.354 13.5C144.074 13.6 143.831 13.71 143.624 13.83C143.418 13.95 143.234 14.0633 143.074 14.17C142.914 14.27 142.744 14.32 142.564 14.32C142.418 14.32 142.291 14.2833 142.184 14.21C142.084 14.13 142.001 14.0333 141.934 13.92L141.544 13.22ZM158.363 14.31C158.063 13.9233 157.733 13.6533 157.373 13.5C157.013 13.3467 156.623 13.27 156.203 13.27C155.363 13.27 154.706 13.58 154.233 14.2C153.76 14.8133 153.523 15.7233 153.523 16.93C153.523 17.5567 153.576 18.0933 153.683 18.54C153.79 18.98 153.943 19.34 154.143 19.62C154.343 19.9 154.586 20.1033 154.873 20.23C155.16 20.3567 155.483 20.42 155.843 20.42C156.39 20.42 156.86 20.3033 157.253 20.07C157.653 19.83 158.023 19.4933 158.363 19.06V14.31ZM160.513 7.2V22H159.213C158.926 22 158.743 21.8633 158.663 21.59L158.473 20.48C158.046 20.98 157.56 21.3833 157.013 21.69C156.473 21.9967 155.843 22.15 155.123 22.15C154.55 22.15 154.03 22.0367 153.563 21.81C153.096 21.5767 152.696 21.24 152.363 20.8C152.03 20.36 151.77 19.8167 151.583 19.17C151.403 18.5167 151.313 17.77 151.313 16.93C151.313 16.17 151.413 15.4667 151.613 14.82C151.82 14.1733 152.113 13.6133 152.493 13.14C152.873 12.66 153.333 12.2867 153.873 12.02C154.42 11.7467 155.03 11.61 155.703 11.61C156.303 11.61 156.813 11.7067 157.233 11.9C157.653 12.0867 158.03 12.35 158.363 12.69V7.2H160.513ZM169.832 15.75C169.832 15.39 169.779 15.0567 169.672 14.75C169.572 14.4367 169.422 14.1667 169.222 13.94C169.022 13.7067 168.772 13.5267 168.472 13.4C168.179 13.2667 167.839 13.2 167.452 13.2C166.672 13.2 166.059 13.4233 165.612 13.87C165.165 14.3167 164.882 14.9433 164.762 15.75H169.832ZM164.702 17.07C164.729 17.65 164.819 18.1533 164.972 18.58C165.125 19 165.329 19.35 165.582 19.63C165.842 19.91 166.149 20.12 166.502 20.26C166.862 20.3933 167.262 20.46 167.702 20.46C168.122 20.46 168.485 20.4133 168.792 20.32C169.099 20.22 169.365 20.1133 169.592 20C169.819 19.88 170.012 19.7733 170.172 19.68C170.332 19.58 170.479 19.53 170.612 19.53C170.785 19.53 170.919 19.5967 171.012 19.73L171.622 20.52C171.369 20.82 171.082 21.0733 170.762 21.28C170.442 21.4867 170.102 21.6567 169.742 21.79C169.382 21.9167 169.012 22.0067 168.632 22.06C168.252 22.12 167.882 22.15 167.522 22.15C166.815 22.15 166.159 22.0333 165.552 21.8C164.952 21.56 164.429 21.21 163.982 20.75C163.542 20.29 163.195 19.72 162.942 19.04C162.695 18.36 162.572 17.5767 162.572 16.69C162.572 15.9833 162.682 15.3233 162.902 14.71C163.129 14.0967 163.449 13.5633 163.862 13.11C164.282 12.6567 164.789 12.3 165.382 12.04C165.982 11.7733 166.659 11.64 167.412 11.64C168.039 11.64 168.619 11.7433 169.152 11.95C169.685 12.15 170.145 12.4467 170.532 12.84C170.919 13.2333 171.219 13.7167 171.432 14.29C171.652 14.8567 171.762 15.5033 171.762 16.23C171.762 16.5633 171.725 16.7867 171.652 16.9C171.579 17.0133 171.445 17.07 171.252 17.07H164.702ZM173.767 22V11.8H175.067C175.36 11.8 175.547 11.9367 175.627 12.21L175.767 13.1C175.954 12.8867 176.147 12.6933 176.347 12.52C176.547 12.34 176.76 12.1867 176.987 12.06C177.22 11.9267 177.467 11.8233 177.727 11.75C177.994 11.6767 178.28 11.64 178.587 11.64C178.914 11.64 179.214 11.6867 179.487 11.78C179.76 11.8733 180 12.0067 180.207 12.18C180.42 12.3533 180.604 12.5633 180.757 12.81C180.91 13.0567 181.037 13.3333 181.137 13.64C181.29 13.2867 181.484 12.9833 181.717 12.73C181.95 12.4767 182.21 12.27 182.497 12.11C182.784 11.95 183.087 11.8333 183.407 11.76C183.734 11.68 184.064 11.64 184.397 11.64C184.944 11.64 185.43 11.7267 185.857 11.9C186.29 12.0733 186.654 12.3267 186.947 12.66C187.247 12.9867 187.474 13.39 187.627 13.87C187.78 14.35 187.857 14.8967 187.857 15.51V22H185.707V15.51C185.707 14.79 185.55 14.25 185.237 13.89C184.93 13.5233 184.474 13.34 183.867 13.34C183.594 13.34 183.337 13.3867 183.097 13.48C182.857 13.5733 182.647 13.71 182.467 13.89C182.287 14.07 182.144 14.2967 182.037 14.57C181.937 14.8367 181.887 15.15 181.887 15.51V22H179.737V15.51C179.737 14.7633 179.587 14.2167 179.287 13.87C178.987 13.5167 178.547 13.34 177.967 13.34C177.567 13.34 177.197 13.4433 176.857 13.65C176.517 13.85 176.204 14.1267 175.917 14.48V22H173.767ZM199.165 11.8L193.545 24.9C193.471 25.0533 193.381 25.1733 193.275 25.26C193.175 25.3467 193.018 25.39 192.805 25.39H191.215L193.095 21.31L188.935 11.8H190.805C190.985 11.8 191.121 11.8433 191.215 11.93C191.315 12.01 191.388 12.1067 191.435 12.22L193.865 18.01C193.925 18.1767 193.978 18.3433 194.025 18.51C194.078 18.67 194.128 18.8367 194.175 19.01C194.228 18.8367 194.281 18.6667 194.335 18.5C194.388 18.3333 194.448 18.1667 194.515 18L196.845 12.22C196.891 12.1 196.968 12 197.075 11.92C197.188 11.84 197.311 11.8 197.445 11.8H199.165Z" fill="white"/>
<rect width="22.7327" height="22.6324" transform="matrix(0.752477 -0.658618 0.70603 0.708182 0 14.9722)" fill="#8A70D6"/>
</svg>
